<svg width="453" height="357" viewBox="0 0 453 357" fill="none" xmlns="http://www.w3.org/2000/svg">
<g clip-path="url(#clip0_11_151)">
<path opacity="0.18" d="M66.666 25.2429C45.1333 37.4148 26.0567 54.9084 15.1676 77.0962C4.27838 99.2839 2.42258 123.955 1.27635 148.299C0.130125 175.59 0.266581 202.881 6.95292 229.354C13.148 253.725 24.8014 276.376 37.8738 297.855C47.4803 313.629 58.3149 329.349 73.8163 339.419C85.1854 346.272 97.7529 350.903 110.85 353.065C155.087 361.627 200.913 355.353 241.22 335.216C271.241 320.151 297.331 297.691 329.016 287.02C356.826 277.659 388.047 277.632 413.1 262.458C444.321 243.354 458.622 202.581 450.98 166.802C443.339 131.024 416.457 101.303 383.871 84.6012C365.395 75.1585 345.418 69.7003 326.806 60.8852C308.193 52.0701 291.191 40.0074 273.042 30.2099C208.198 -4.85927 132.001 -11.7094 66.666 25.2429Z" fill="#4FC3F7"/>
<path d="M273.342 117.023H273.097C273.112 117.006 273.131 116.992 273.152 116.982C273.173 116.973 273.196 116.968 273.219 116.968C273.243 116.968 273.266 116.973 273.287 116.982C273.308 116.992 273.327 117.006 273.342 117.023Z" fill="#4FC3F7"/>
<path d="M181.043 215.872C169.77 224.013 157.808 231.154 145.292 237.214L143.518 237.432H143.027C142.548 237.411 142.079 237.285 141.653 237.065C141.228 236.844 140.855 236.533 140.562 236.154C140.268 235.775 140.061 235.336 139.954 234.869C139.847 234.402 139.843 233.916 139.943 233.447C140.058 232.456 140.231 231.472 140.461 230.5C142.044 223.077 143.636 215.663 145.237 208.258C145.328 207.987 145.323 207.693 145.224 207.425C145.124 207.157 144.937 206.931 144.692 206.784L116.118 184.596C115.936 184.419 115.702 184.306 115.45 184.277C115.198 184.247 114.943 184.302 114.726 184.432C113.034 185.306 111.287 186.097 109.54 186.889C103.4 189.782 97.4778 192.511 91.4191 195.24C91.0217 195.441 90.5864 195.555 90.1416 195.576C89.6968 195.598 89.2525 195.525 88.8379 195.362C88.4232 195.2 88.0474 194.952 87.7351 194.635C87.4227 194.317 87.1809 193.938 87.0253 193.52L86.6705 192.702V192.265C86.9418 190.073 87.3243 187.896 87.8167 185.742C90.8684 174.415 94.6144 163.287 99.0334 152.42C101.1 146.572 105.145 141.629 110.468 138.447C114.507 136.163 118.96 134.707 123.568 134.162C127.132 133.649 130.722 133.339 134.321 133.234H137.732C137.97 133.202 138.198 133.122 138.404 133C138.61 132.879 138.79 132.717 138.933 132.525C141.662 128.54 144.228 124.337 147.12 120.517C151.151 114.766 155.487 109.236 160.111 103.951C164.931 99.0413 169.996 94.3777 175.285 89.9777C180.633 85.2441 186.387 80.9886 192.478 77.26C201.626 72.0034 211.426 67.9751 221.625 65.2792C223.59 64.6788 225.583 64.1602 227.575 63.6144L231.669 63.1778H232.405C233.361 63.291 234.264 63.6747 235.008 64.284C235.753 64.8932 236.308 65.7024 236.608 66.6164C236.621 66.7344 236.621 66.8533 236.608 66.9712C236.793 67.8719 236.921 68.7835 236.99 69.7004C237.391 74.4912 237.3 79.3106 236.717 84.0828C236.122 92.7057 234.425 101.217 231.669 109.409C228.906 117.03 225.623 124.452 221.844 131.624C218.862 137.75 215.337 143.596 211.309 149.09C204.887 157.503 198.018 165.566 190.732 173.243C190.505 173.448 190.345 173.716 190.272 174.013C190.199 174.309 190.216 174.621 190.322 174.908C190.814 177.037 191.278 179.165 191.66 181.294C192.636 185.708 193.003 190.235 192.751 194.749C192.589 198.94 191.445 203.035 189.412 206.704C187.378 210.373 184.512 213.513 181.043 215.872V215.872Z" fill="white"/>
<path d="M133.42 195.949L116.227 182.549C116.227 182.549 123.623 159.761 134.321 133.234H137.732C137.97 133.202 138.198 133.122 138.404 133C138.61 132.879 138.79 132.717 138.933 132.525C141.662 128.54 144.228 124.337 147.12 120.517C151.151 114.766 155.487 109.236 160.111 103.951C164.931 99.0413 169.996 94.3777 175.285 89.9777C180.633 85.2441 186.387 80.9886 192.478 77.26C201.626 72.0034 211.426 67.9751 221.625 65.2792C223.59 64.6788 225.583 64.1602 227.575 63.6144L231.669 63.1778H232.405C233.361 63.291 234.264 63.6747 235.008 64.2839C235.753 64.8932 236.308 65.7024 236.608 66.6164C236.621 66.7344 236.621 66.8533 236.608 66.9712C226.865 74.8857 156.481 133.043 133.42 195.949Z" fill="url(#paint0_linear_11_151)"/>
<path d="M188.33 141.694C197.238 141.694 204.459 134.473 204.459 125.565C204.459 116.658 197.238 109.436 188.33 109.436C179.422 109.436 172.201 116.658 172.201 125.565C172.201 134.473 179.422 141.694 188.33 141.694Z" fill="#4FC3F7"/>
<path d="M188.33 136.291C194.254 136.291 199.056 131.489 199.056 125.565C199.056 119.642 194.254 114.84 188.33 114.84C182.407 114.84 177.605 119.642 177.605 125.565C177.605 131.489 182.407 136.291 188.33 136.291Z" fill="#473F47"/>
<path d="M140.762 134.189L115.19 184.842L90.9279 195.758C90.9279 195.758 86.2065 198.897 86.6704 192.456C87.1344 186.015 99.661 149.827 103.4 144.806C107.139 139.784 118.519 130.614 140.762 134.189V134.189ZM190.104 173.816L145.237 208.258L138.687 238.66C139.668 239.959 141.071 240.877 142.654 241.255C144.238 241.634 145.904 241.449 147.366 240.734C153.507 238.687 185.246 217.537 189.203 212.761C193.161 207.985 199.11 194.448 190.104 173.816V173.816ZM215.021 67.4079L236.635 84.1101C236.635 84.1101 237.754 66.8075 236.635 63.1778C235.517 59.548 215.021 67.4079 215.021 67.4079V67.4079Z" fill="#4FC3F7"/>
<path d="M116.254 182.577L111.969 190.191L140.762 212.297L147.393 206.62L116.254 182.577Z" fill="#4FC3F7"/>
<path opacity="0.36" d="M111.969 190.164C111.969 190.164 28.8405 278.696 83.3682 319.36C137.896 360.024 200.911 333.224 200.911 333.224C200.911 333.224 110.85 353.119 97.7234 302.603C90.0546 273.047 140.762 212.297 140.762 212.297L111.969 190.164Z" fill="url(#paint1_linear_11_151)"/>
<path d="M288.27 268.926L308.52 281.234H257.104L277.354 268.135V257.464L273.97 253.452V240.734C240.838 229.272 241.63 158.206 241.63 158.206H323.995V159.052C324.486 166.857 327.242 226.679 296.212 239.724C294.99 240.25 293.731 240.688 292.446 241.034V251.951L289.717 255.471L288.27 257.3V268.926Z" fill="#4FC3F7"/>
<path d="M245.123 219.802C244.123 219.836 243.127 219.673 242.19 219.321C241.254 218.97 240.396 218.438 239.665 217.755C238.784 216.792 238.191 215.601 237.954 214.317C237.718 213.034 237.847 211.709 238.328 210.496L242.094 211.587C241.854 212.146 241.772 212.76 241.859 213.362C241.946 213.964 242.197 214.53 242.585 214.999C243.164 215.45 243.848 215.749 244.572 215.868C245.297 215.987 246.04 215.923 246.733 215.681C247.241 215.583 247.718 215.362 248.122 215.039C248.526 214.716 248.846 214.299 249.053 213.825C248.726 212.679 243.595 208.367 239.61 204.737C228.694 195.185 215.048 183.314 219.497 173.762C220.111 172.259 221.075 170.925 222.309 169.871C223.544 168.818 225.012 168.074 226.592 167.703C235.326 165.683 246.897 175.072 247.388 175.481L244.905 178.51C241.985 176.109 233.142 170.323 227.466 171.524C226.468 171.769 225.545 172.252 224.775 172.932C224.005 173.611 223.412 174.467 223.045 175.426C219.824 182.304 233.279 194.012 242.148 201.762C250.063 208.667 253.529 211.833 252.846 214.753C252.494 215.919 251.839 216.971 250.947 217.8C250.055 218.63 248.959 219.207 247.77 219.474C246.905 219.691 246.016 219.801 245.123 219.802V219.802ZM323.067 219.802C322.19 219.805 321.318 219.685 320.474 219.447C319.281 219.184 318.179 218.609 317.282 217.779C316.385 216.949 315.725 215.895 315.371 214.726C314.688 211.806 318.1 208.64 326.069 201.735C334.966 193.984 348.42 182.276 345.173 175.399C344.82 174.511 344.259 173.72 343.537 173.093C342.815 172.466 341.953 172.022 341.024 171.797C334.829 170.432 324.65 177.255 321.347 179.984L319 176.927C319.573 176.491 332.646 166.011 342.034 168.003C343.553 168.346 344.968 169.048 346.159 170.049C347.351 171.051 348.286 172.324 348.884 173.762C353.36 183.314 339.714 195.185 328.771 204.737C324.704 208.285 319.655 212.679 319.328 214.098C319.546 214.78 320.665 215.408 321.648 215.681C322.335 215.931 323.076 215.999 323.797 215.88C324.519 215.76 325.198 215.457 325.769 214.999C326.129 214.52 326.353 213.952 326.415 213.356C326.478 212.76 326.377 212.158 326.123 211.615L329.917 210.523C330.397 211.738 330.523 213.065 330.282 214.349C330.041 215.634 329.441 216.824 328.552 217.782C327.817 218.465 326.953 218.995 326.012 219.342C325.07 219.688 324.069 219.845 323.067 219.802Z" fill="#4FC3F7"/>
<path opacity="0.28" d="M296.267 239.752C295.044 240.278 293.786 240.716 292.501 241.062V241.335H273.97V240.734C240.838 229.272 241.63 158.206 241.63 158.206H261.825C261.825 158.206 252.874 205.283 282.976 233.802C289.389 239.915 291.709 238.387 296.267 239.752V239.752Z" fill="white"/>
<path d="M307.292 241.307C306.044 241.49 304.775 241.49 303.526 241.307H307.292Z" fill="#4FC3F7"/>
<path opacity="0.28" d="M280.028 241.335V253.206L282.976 257.163V268.162L275.007 281.289H259.669L279.537 268.899V257.409L275.607 252.606V240.652L280.028 241.335Z" fill="white"/>
<path d="M273.97 241.362V240.761C240.838 229.299 241.63 158.233 241.63 158.233H247.497C247.497 158.233 243.895 220.812 275.607 240.652L276.699 241.362H273.97Z" fill="url(#paint2_linear_11_151)"/>
<path d="M292.501 241.062V251.978L289.771 255.499C283.986 253.506 283.085 249.249 292.501 241.062Z" fill="#4FC3F7"/>
<path d="M296.267 239.752C295.044 240.278 293.786 240.716 292.501 241.062C323.176 214.453 307.292 158.233 307.292 158.233L324.049 159.079C324.459 166.884 327.188 226.707 296.267 239.752V239.752Z" fill="url(#paint3_linear_11_151)"/>
</g>
<defs>
<linearGradient id="paint0_linear_11_151" x1="57.5235" y1="104.688" x2="313.733" y2="155.64" gradientUnits="userSpaceOnUse">
<stop offset="0.01"/>
<stop offset="0.13" stop-opacity="0.69"/>
<stop offset="0.25" stop-opacity="0.32"/>
<stop offset="1" stop-opacity="0"/>
</linearGradient>
<linearGradient id="paint1_linear_11_151" x1="3526.72" y1="9979.49" x2="17016.7" y2="34178.8" gradientUnits="userSpaceOnUse">
<stop offset="0.01"/>
<stop offset="0.08" stop-opacity="0.69"/>
<stop offset="0.21" stop-opacity="0.32"/>
<stop offset="1" stop-opacity="0"/>
</linearGradient>
<linearGradient id="paint2_linear_11_151" x1="2721.84" y1="7947.41" x2="5079.63" y2="7767.55" gradientUnits="userSpaceOnUse">
<stop offset="0.01"/>
<stop offset="0.13" stop-opacity="0.69"/>
<stop offset="0.25" stop-opacity="0.32"/>
<stop offset="1" stop-opacity="0"/>
</linearGradient>
<linearGradient id="paint3_linear_11_151" x1="5154.88" y1="7785.93" x2="2605.49" y2="7649.02" gradientUnits="userSpaceOnUse">
<stop offset="0.01"/>
<stop offset="0.13" stop-opacity="0.69"/>
<stop offset="0.25" stop-opacity="0.32"/>
<stop offset="1" stop-opacity="0"/>
</linearGradient>
<clipPath id="clip0_11_151">
<rect width="452.269" height="356.341" fill="white" transform="translate(0.73053 0.544495)"/>
</clipPath>
</defs>
</svg>
