<svg width="452" height="389" viewBox="0 0 452 389" fill="none" xmlns="http://www.w3.org/2000/svg">
<g clip-path="url(#clip0_11_152)">
<path opacity="0.18" d="M445.807 245.484C441.169 230.692 434.08 216.783 424.835 204.338C409.928 184.296 389.933 167.744 379.161 145.211C344.033 71.7615 296.19 0.861504 206.475 0.790009C123.147 0.790009 97.5038 64.7787 92.5944 74.1804C80.6785 96.9995 82.025 124.323 74.8516 149.048C64.8541 183.474 39.2109 210.642 18.1793 239.61C10.7199 249.905 3.60604 260.987 1.49692 273.522C0.209995 281.196 0.865372 289.013 1.58033 296.806C3.33198 315.765 12.3047 326.775 20.3718 342.838C28.2687 358.572 40.9059 371.43 56.501 379.598C84.432 394.005 124.625 388.762 154.653 383.507C191.056 377.144 225.66 362.523 263.243 364.179C285.89 365.217 308.406 368.195 330.544 373.08C345.511 376.393 356.616 383.709 372.429 381.553C405.114 377.084 434.118 350.643 445.283 320.269C454.065 296.377 453.445 269.948 445.807 245.484V245.484Z" fill="#4FC3F7"/>
<path opacity="0.41" d="M95.3947 215.587H140.604V254.969H95.3947V215.587Z" fill="#4FC3F7"/>
<path d="M140.246 184.951H185.456V254.957H140.246V184.951Z" fill="#4FC3F7"/>
<path opacity="0.5" d="M185.098 152.623H230.307V254.969H185.098V152.623Z" fill="#4FC3F7"/>
<path d="M229.95 121.141H275.159V254.957H229.95V121.141Z" fill="#4FC3F7"/>
<path d="M274.801 89.4209H320.011V254.969H274.801V89.4209Z" fill="#4FC3F7"/>
<path d="M274.801 89.4209H320.011V254.969H274.801V89.4209Z" fill="url(#paint0_linear_11_152)"/>
<path d="M135.647 178.064C135.578 178.137 135.521 178.222 135.48 178.314C135.259 179.254 135.259 180.233 135.48 181.174C135.773 183.244 136.272 185.28 136.969 187.251C137.019 187.437 137.113 187.609 137.244 187.751C137.397 187.866 137.587 187.921 137.778 187.906C137.969 187.89 138.147 187.806 138.28 187.668C138.533 187.38 138.705 187.031 138.781 186.655C139.046 185.556 139.245 184.442 139.377 183.319C139.579 181.889 141.509 181.078 142.618 180.435C142.711 180.391 142.79 180.32 142.844 180.232C142.844 180.113 143.511 181.627 143.476 181.507C143.205 180.64 142.867 179.795 142.463 178.981C142.463 178.91 141.748 177.182 141.688 177.146C141.629 177.11 141.438 177.146 141.331 177.218C140.407 177.655 139.355 177.735 138.376 177.444C137.905 177.312 137.409 177.299 136.932 177.407C136.456 177.516 136.014 177.741 135.647 178.064V178.064Z" fill="#FCAB9A"/>
<path d="M137.196 177.039C136.373 176.84 135.507 176.929 134.741 177.289C134.493 177.392 134.284 177.571 134.145 177.802C134.054 178.032 134.021 178.282 134.05 178.528C134.104 181.724 134.622 184.895 135.587 187.942C135.698 188.337 135.879 188.709 136.123 189.038C136.247 189.205 136.412 189.337 136.602 189.421C136.792 189.505 137.001 189.537 137.208 189.515C137.494 189.465 137.759 189.332 137.97 189.134C138.357 188.795 138.673 188.383 138.898 187.921C139.123 187.459 139.253 186.957 139.281 186.444C139.308 185.931 139.233 185.417 139.059 184.934C138.885 184.45 138.616 184.006 138.268 183.628C137.991 183.38 137.743 183.1 137.53 182.794C137.358 182.484 137.245 182.145 137.196 181.793C137.018 180.902 136.91 179.997 136.874 179.088C136.944 178.4 137.051 177.716 137.196 177.039V177.039ZM162.053 161.477C161.416 163.391 160.618 165.249 159.669 167.03C157.548 170.604 154.224 173.369 150.875 175.883C149.059 177.251 147.211 178.578 145.335 179.863C144.357 180.396 143.337 180.847 142.284 181.21C142.184 181.27 142.067 181.299 141.95 181.293C141.858 181.264 141.776 181.211 141.712 181.138C140.258 179.839 139.234 178.159 140.83 176.86C142.446 175.629 143.921 174.222 145.227 172.666C147.801 169.425 149.994 165.719 153.402 163.288C153.782 163.104 154.085 162.791 154.255 162.405C154.425 162.018 154.452 161.583 154.331 161.179C153.997 156.412 153.827 151.618 153.819 146.796C153.724 145.481 153.928 144.161 154.414 142.935C155.88 139.897 161.183 139.516 164.043 139.79C164.714 139.795 165.371 139.989 165.937 140.35C169.214 142.935 167.748 146.165 166.581 149.31L162.053 161.477Z" fill="#473F47"/>
<path d="M177.829 123.06C178.449 123.608 187.874 126.634 189.09 126.301C190.532 125.931 194.285 115.386 195.405 111.537C195.45 111.433 195.472 111.322 195.472 111.209C195.472 111.097 195.45 110.985 195.405 110.882C195.353 110.793 195.279 110.72 195.191 110.667C192.879 109.178 191.497 112.681 190.937 114.242C190.048 116.653 188.846 118.937 187.362 121.034C184.979 121.225 179.247 118.925 178.556 118.901C178.186 118.89 177.821 118.98 177.499 119.163C177.177 119.346 176.912 119.614 176.733 119.938C176.197 121.082 176.995 122.285 177.829 123.06Z" fill="#FCAB9A"/>
<path d="M178.854 117.268C179.14 117.459 179.426 117.638 179.724 117.805C179.854 117.856 179.96 117.953 180.022 118.079C180.052 118.18 180.052 118.287 180.022 118.389L179.462 120.939C179.29 122.078 178.884 123.169 178.27 124.144C177.925 124.609 175.398 122.952 175.041 122.678C173.992 121.985 173.076 121.109 172.336 120.093C171.993 119.654 171.73 119.158 171.562 118.627C171.321 117.337 171.518 116.003 172.122 114.838C173.111 112.919 174.755 113.861 176.018 115.04C176.888 115.874 177.838 116.62 178.854 117.268V117.268Z" fill="#4FC3F7"/>
<path d="M164.293 183.342C164.347 183.415 164.411 183.479 164.483 183.533C165.302 183.921 166.199 184.116 167.105 184.105C169.05 184.226 171.002 184.151 172.932 183.879C173.116 183.868 173.296 183.815 173.456 183.724C173.587 183.605 173.67 183.443 173.689 183.267C173.709 183.092 173.664 182.915 173.563 182.771C173.35 182.48 173.062 182.254 172.729 182.115C171.773 181.658 170.79 181.261 169.786 180.924C169.345 180.757 168.964 180.685 168.964 180.125C168.971 179.863 169.028 179.604 169.131 179.363L169.441 178.457C169.548 178.135 169.655 177.742 169.441 177.492C169.294 177.362 169.111 177.283 168.916 177.265C168.034 177.087 167.135 177.003 166.235 177.015C166.147 177.004 166.058 177.025 165.985 177.075C165.935 177.119 165.898 177.177 165.878 177.242C165.246 178.707 163.113 181.829 164.293 183.342V183.342Z" fill="#FCAB9A"/>
<path d="M156.595 136.406C156.595 136.406 151.829 143.078 156.726 149.013C160.146 153.136 165.258 155.936 169.965 158.295C170.787 158.712 171.764 159.058 172.562 159.558C174.123 160.523 173.158 161.358 172.336 162.668C170.275 166.005 168.177 169.305 166.068 172.606C164.838 174.26 163.999 176.17 163.614 178.195L168.952 179.803C171.814 174.906 175.078 170.254 178.711 165.898C180.284 164.015 182.286 161.715 182.036 159.094C181.67 156.68 180.606 154.426 178.973 152.611L168.952 141.005L156.595 136.406Z" fill="#473F47"/>
<path d="M179.795 104.53C179.962 105.031 180.439 105.412 180.51 105.948C180.582 106.485 180.046 107.14 179.7 107.652C179.223 108.403 179.104 109.344 178.628 110.107C178.543 110.277 178.41 110.417 178.246 110.512C178.088 110.56 177.923 110.584 177.758 110.584C177.123 110.57 176.493 110.465 175.887 110.274C175.781 110.206 175.655 110.176 175.53 110.19C175.424 110.255 175.34 110.351 175.291 110.464C174.582 111.95 174.243 113.586 174.302 115.231C174.302 115.755 174.302 116.422 173.873 116.697C173.712 116.793 173.525 116.838 173.337 116.828C172.145 116.828 171.156 115.731 170.561 114.635C170.043 113.653 169.643 112.613 169.369 111.537C169.274 111.225 169.238 110.897 169.262 110.572C169.321 110.188 169.454 109.82 169.655 109.487C170.275 108.272 170.774 106.999 171.144 105.686C171.469 103.972 172.06 102.32 172.896 100.789C173.207 100.29 173.671 99.9052 174.219 99.6925C174.841 99.5475 175.492 99.5722 176.102 99.764C177.365 99.9655 178.504 100.644 179.283 101.659C179.486 102.04 179.593 103.911 179.795 104.53V104.53Z" fill="#FCAB9A"/>
<path d="M167.57 141.875C166.502 142.053 165.408 141.996 164.364 141.708C162.832 141.394 161.263 141.306 159.705 141.446C158.779 141.665 157.874 141.964 157 142.34C155.261 142.852 152.103 142.423 152.139 140.123C152.27 132.974 155.034 126.17 158.097 119.711C159.395 116.935 160.885 114.051 163.483 112.443C164.395 111.864 165.422 111.49 166.493 111.345C167.563 111.2 168.653 111.289 169.686 111.605C170.719 111.921 171.672 112.456 172.479 113.174C173.286 113.893 173.929 114.777 174.362 115.767C175.069 117.438 175.473 119.221 175.553 121.034C175.756 123.298 175.792 125.8 174.529 127.647C173.931 128.432 173.274 129.169 172.562 129.852C170.859 131.698 169.718 133.992 169.274 136.465C168.88 138.372 170.501 141.279 167.57 141.875V141.875Z" fill="#4FC3F7"/>
<path d="M179.212 100.86C178.354 102.231 176.912 101.67 175.732 102.231C174.552 102.791 174.541 104.506 173.349 105.293C172.848 105.662 172.229 105.924 171.931 106.485C171.731 106.966 171.661 107.492 171.728 108.01C171.77 108.776 171.77 109.544 171.728 110.31C171.73 110.995 171.522 111.664 171.133 112.228C170.263 113.241 168.666 112.967 167.331 113.098C164.722 113.36 163.84 115.827 162.112 117.495C161.266 118.317 160.325 119.032 159.55 119.878C158.381 121.308 157.451 122.917 156.798 124.644C156.281 126.004 155.597 127.293 154.76 128.481C154.343 129.076 153.813 129.583 153.199 129.971C152.586 130.36 151.901 130.623 151.185 130.745C150.506 130.799 149.822 130.712 149.178 130.488C148.534 130.264 147.944 129.91 147.444 129.447C146.572 128.646 145.949 127.611 145.651 126.465C145.353 125.319 145.392 124.112 145.763 122.988C145.962 122.624 146.018 122.199 145.918 121.797C145.804 121.579 145.646 121.389 145.454 121.237C144.591 120.347 144.109 119.157 144.109 117.918C144.109 116.679 144.591 115.489 145.454 114.599C146.395 113.706 148.647 112.86 148.766 111.394C148.885 109.928 147.575 108.498 148.135 106.818C148.324 106.305 148.602 105.829 148.957 105.412C149.628 104.402 150.547 103.582 151.626 103.029C152.706 102.653 153.843 102.468 154.986 102.481C158.657 102.219 162.493 101.099 164.912 98.3102C165.461 97.5874 166.062 96.9063 166.712 96.2726C167.472 95.6856 168.338 95.2488 169.262 94.9857C171.486 94.1418 173.936 94.1038 176.185 94.8784C176.964 95.2085 177.659 95.7098 178.218 96.3451C178.777 96.9805 179.186 97.7336 179.414 98.5485C179.552 98.9251 179.606 99.3274 179.571 99.727C179.536 100.127 179.413 100.513 179.212 100.86V100.86Z" fill="#FC682D"/>
<path d="M178.794 106.985C178.33 106.985 177.603 106.985 177.186 106.854C177.043 107.14 177.734 108.2 177.889 108.332C177.961 108.396 178.054 108.432 178.151 108.432C178.248 108.432 178.341 108.396 178.413 108.332C178.487 108.249 178.533 108.144 178.544 108.034L178.794 106.973" fill="white"/>
<path d="M177.531 104.626C177.768 104.626 177.96 104.434 177.96 104.197C177.96 103.96 177.768 103.768 177.531 103.768C177.294 103.768 177.102 103.96 177.102 104.197C177.102 104.434 177.294 104.626 177.531 104.626Z" fill="#231F20"/>
<path d="M192.474 108.105C192.119 108.136 191.78 108.263 191.492 108.473C191.204 108.684 190.979 108.968 190.842 109.297C190.73 109.737 190.754 110.2 190.912 110.625C191.069 111.051 191.352 111.419 191.723 111.68C192.475 112.184 193.338 112.498 194.238 112.597C194.367 112.638 194.503 112.649 194.637 112.63C194.771 112.612 194.899 112.564 195.012 112.49C195.13 112.359 195.208 112.198 195.239 112.025C195.455 111.414 195.544 110.766 195.501 110.119C195.304 109.487 194.896 108.942 194.345 108.575C193.794 108.208 193.133 108.042 192.474 108.105V108.105Z" fill="#FCAB9A"/>
<path d="M163.637 181.722C163.302 182.436 163.222 183.244 163.411 184.01C163.459 184.257 163.584 184.482 163.768 184.653C163.962 184.781 164.182 184.863 164.412 184.892C167.362 185.439 170.376 185.559 173.361 185.249C173.745 185.222 174.12 185.125 174.469 184.963C174.642 184.876 174.791 184.748 174.903 184.59C175.015 184.432 175.087 184.249 175.112 184.057C175.113 183.796 175.039 183.539 174.898 183.319C174.666 182.895 174.35 182.523 173.97 182.225C173.59 181.927 173.153 181.709 172.687 181.584C172.22 181.459 171.733 181.431 171.255 181.499C170.777 181.568 170.318 181.733 169.905 181.984C169.624 182.186 169.325 182.361 169.012 182.508C168.694 182.598 168.364 182.634 168.034 182.616C167.18 182.622 166.326 182.55 165.484 182.401C164.856 182.212 164.239 181.985 163.637 181.722V181.722Z" fill="#473F47"/>
<path d="M158.228 116.744C157.203 116.744 157.036 115.1 156.214 115.743C153.822 117.599 151.601 119.665 149.577 121.916C148.171 123.536 143.511 131.615 142.558 132.914C141.067 134.655 139.948 136.683 139.269 138.872C139.065 139.5 139.091 140.18 139.341 140.791C140.532 143.174 144.381 138.61 145.072 137.49C145.597 137.871 146.383 138.205 146.812 137.716C147.408 137.049 146.502 136.048 146.216 135.428C145.877 134.604 145.852 133.684 146.145 132.843C146.528 131.842 147.094 130.92 147.813 130.126C150.989 126.278 154.934 123.137 159.395 120.903C160.039 120.581 160.766 120.2 160.956 119.509C161.036 119.167 161.007 118.808 160.873 118.484C160.668 117.955 160.303 117.503 159.828 117.191C159.354 116.879 158.795 116.723 158.228 116.744V116.744Z" fill="#FCAB9A"/>
<path d="M168.952 117.697C168.952 117.697 157.036 123.358 156.345 123.965C155.654 124.573 152.103 117.376 152.103 117.376C152.103 117.376 163.852 110.441 167.594 110.87C171.335 111.299 172.67 115.338 168.952 117.697V117.697Z" fill="#4FC3F7"/>
<path d="M297.406 89.409C308.429 89.409 317.365 80.4729 317.365 69.4498C317.365 58.4266 308.429 49.4905 297.406 49.4905C286.383 49.4905 277.447 58.4266 277.447 69.4498C277.447 80.4729 286.383 89.409 297.406 89.409Z" fill="#F8C244"/>
<path d="M297.454 84.2017C305.351 84.2017 311.753 77.7998 311.753 69.9026C311.753 62.0054 305.351 55.6034 297.454 55.6034C289.556 55.6034 283.154 62.0054 283.154 69.9026C283.154 77.7998 289.556 84.2017 297.454 84.2017Z" fill="#E8A825"/>
<path d="M297.454 78.2437C302.06 78.2437 305.795 74.5093 305.795 69.9026C305.795 65.2959 302.06 61.5614 297.454 61.5614C292.847 61.5614 289.112 65.2959 289.112 69.9026C289.112 74.5093 292.847 78.2437 297.454 78.2437Z" fill="#CA9220"/>
</g>
<defs>
<linearGradient id="paint0_linear_11_152" x1="7223.45" y1="12725.7" x2="29535.6" y2="17044" gradientUnits="userSpaceOnUse">
<stop offset="0.01" stop-color="#5CA4C5"/>
<stop offset="0.08" stop-opacity="0.69"/>
<stop offset="0.21" stop-opacity="0.32"/>
<stop offset="1" stop-opacity="0"/>
</linearGradient>
<clipPath id="clip0_11_152">
<rect width="450.948" height="388.21" fill="white" transform="translate(0.746277 0.790009)"/>
</clipPath>
</defs>
</svg>
